<?xml version="1.0" encoding="UTF-8"?>
<svg width="36px" height="36px" viewBox="0 0 36 36" version="1.1" xmlns="http://www.w3.org/2000/svg" xmlns:xlink="http://www.w3.org/1999/xlink">
    <title>Mail</title>
    <g id="News-UI-Screen" stroke="none" stroke-width="1" fill="none" fill-rule="evenodd">
        <g id="News" transform="translate(-492.000000, -932.000000)">
            <rect fill="#F7F8F9" x="0" y="0" width="1440" height="1002"></rect>
            <path d="M20,898 L1420,898 C1431.04569,898 1440,906.954305 1440,918 L1440,1001.65755 L1440,1001.65755 L0,1001.65755 L0,918 C-1.3527075e-15,906.954305 8.954305,898 20,898 Z" id="Rectangle" fill="#FFFFFF"></path>
            <path d="M510,932 C519.941125,932 528,940.058875 528,950 C528,959.941125 519.941125,968 510,968 C500.058875,968 492,959.941125 492,950 C492,940.058875 500.058875,932 510,932 Z M510,933.333333 C500.795254,933.333333 493.333333,940.795254 493.333333,950 C493.333333,959.204746 500.795254,966.666667 510,966.666667 C519.204746,966.666667 526.666667,959.204746 526.666667,950 C526.666667,940.795254 519.204746,933.333333 510,933.333333 Z M517.591398,947.483871 L517.591398,953.623848 C517.591398,954.935484 516.516484,956 515.192038,956 L515.192038,956 L503.732694,956 C502.408247,956 501.333333,954.935484 501.333333,953.623848 L501.333333,953.623848 L501.333333,947.483871 L508.972896,952.103111 C509.126455,952.198157 509.299209,952.236175 509.452768,952.236175 C509.606327,952.236175 509.779081,952.198157 509.93264,952.103111 L509.93264,952.103111 L517.591398,947.483871 Z M515.246671,944 C516.389968,944 517.358863,944.826681 517.591398,945.928923 L517.591398,945.928923 L509.472055,950.967742 L501.333333,945.928923 C501.565868,944.826681 502.534764,944 503.67806,944 L503.67806,944 Z" id="Mail" fill="#D62839" fill-rule="nonzero"></path>
        </g>
    </g>
</svg>