<?xml version="1.0" encoding="UTF-8"?>
<svg width="36px" height="36px" viewBox="0 0 36 36" version="1.1" xmlns="http://www.w3.org/2000/svg" xmlns:xlink="http://www.w3.org/1999/xlink">
    <title>Phone</title>
    <g id="News-UI-Screen" stroke="none" stroke-width="1" fill="none" fill-rule="evenodd">
        <g id="News" transform="translate(-118.000000, -932.000000)">
            <rect fill="#F7F8F9" x="0" y="0" width="1440" height="1002"></rect>
            <path d="M20,898 L1420,898 C1431.04569,898 1440,906.954305 1440,918 L1440,1001.65755 L1440,1001.65755 L0,1001.65755 L0,918 C-1.3527075e-15,906.954305 8.954305,898 20,898 Z" id="Rectangle" fill="#FFFFFF"></path>
            <path d="M136,932 C145.941125,932 154,940.058875 154,950 C154,959.941125 145.941125,968 136,968 C126.058875,968 118,959.941125 118,950 C118,940.058875 126.058875,932 136,932 Z M136,933.333333 C126.795254,933.333333 119.333333,940.795254 119.333333,950 C119.333333,959.204746 126.795254,966.666667 136,966.666667 C145.204746,966.666667 152.666667,959.204746 152.666667,950 C152.666667,940.795254 145.204746,933.333333 136,933.333333 Z M132.666667,943.333333 C133.074074,943.333333 133.407407,943.666667 133.407407,944.074074 C133.407407,945 133.555556,945.888889 133.82963,946.718519 C133.911111,946.977778 133.851852,947.266667 133.644444,947.474074 L132.014815,949.103704 C133.081481,951.2 134.8,952.911111 136.896296,953.985185 L138.525926,952.355556 C138.725926,952.155556 139.022222,952.088889 139.281481,952.177778 C140.111111,952.451852 141.007407,952.6 141.925926,952.6 C142.333333,952.6 142.666667,952.933333 142.666667,953.340741 L142.666667,955.925926 C142.666667,956.333333 142.333333,956.666667 141.925926,956.666667 C134.97037,956.666667 129.333333,951.02963 129.333333,944.074074 C129.333333,943.666667 129.666667,943.333333 130.074074,943.333333 L132.666667,943.333333 Z" id="Phone" fill="#D62839" fill-rule="nonzero"></path>
        </g>
    </g>
</svg>